# xmcd
#
# Track frame offsets:
#	150
#	13292
#	26085
#	39925
#	52675
#	62390
#	77647
#	94732
#	110735
#	126997
#	140627
#	151302
#	167680
#	182300
#
# Disc length: 2624 seconds
#
# Revision: 3
# Processed by: cddbd v1.4PL0 Copyright (c) Steve Scherf et al.
# Submitted via: MusicWizard 6.0.0
#
DISCID=ac0a3e0e
DTITLE=Lynn Anderson - Rose garden
DYEAR=1900
DGENRE=Oldies
TTITLE0=Rose Garden
TTITLE1=Top of the world
TTITLE2=Two doors down
TTITLE3=I fall to pieces
TTITLE4=Snowbird
TTITLE5=Desperado
TTITLE6=Blue Bayou
TTITLE7=You needed me
TTITLE8=The devil went down to Georgia
TTITLE9=Talking in your sleep
TTITLE10=Heartbreak Hotel
TTITLE11=When I dream
TTITLE12=Gone at last
TTITLE13=Cry
EXTD=
EXTT0=
EXTT1=
EXTT2=
EXTT3=
EXTT4=
EXTT5=
EXTT6=
EXTT7=
EXTT8=
EXTT9=
EXTT10=
EXTT11=
EXTT12=
EXTT13=
PLAYORDER=
